<mxfile host="app.diagrams.net" agent="Mozilla/5.0 (Windows NT 10.0; Win64; x64) AppleWebKit/537.36 (KHTML, like Gecko) Chrome/130.0.0.0 Safari/537.36" version="24.8.3">
  <diagram id="R2lEEEUBdFMjLlhIrx00" name="Page-1">
    <mxGraphModel dx="1167" dy="580" grid="1" gridSize="10" guides="1" tooltips="1" connect="1" arrows="1" fold="1" page="1" pageScale="1" pageWidth="850" pageHeight="1100" math="0" shadow="0" extFonts="Permanent Marker^https://fonts.googleapis.com/css?family=Permanent+Marker">
      <root>
        <mxCell id="0" />
        <mxCell id="1" parent="0" />
        <mxCell id="7wA72ayKQp1s7yQ74Olv-13" value="MESAS" style="whiteSpace=wrap;html=1;align=center;fontSize=16;fillColor=#E1F5E0;strokeColor=#000000;strokeWidth=1;" parent="1" vertex="1">
          <mxGeometry x="579.5" y="380" width="153" height="44" as="geometry" />
        </mxCell>
        <mxCell id="7wA72ayKQp1s7yQ74Olv-110" style="edgeStyle=none;shape=connector;rounded=0;orthogonalLoop=1;jettySize=auto;html=1;exitX=0;exitY=0.5;exitDx=0;exitDy=0;entryX=1;entryY=0.5;entryDx=0;entryDy=0;strokeColor=default;align=center;verticalAlign=middle;fontFamily=Helvetica;fontSize=12;fontColor=default;labelBackgroundColor=default;startSize=8;endArrow=none;endFill=0;endSize=8;" parent="1" source="7wA72ayKQp1s7yQ74Olv-20" target="7wA72ayKQp1s7yQ74Olv-109" edge="1">
          <mxGeometry relative="1" as="geometry" />
        </mxCell>
        <mxCell id="7wA72ayKQp1s7yQ74Olv-20" value="PEDIDOS" style="whiteSpace=wrap;html=1;align=center;fontSize=16;fillColor=#E1F5E0;strokeColor=#000000;opacity=80;strokeWidth=1;" parent="1" vertex="1">
          <mxGeometry x="187.5" y="390.5" width="153" height="46" as="geometry" />
        </mxCell>
        <mxCell id="FJ0XkdiGqIxSbLd-AwFj-5" style="edgeStyle=none;shape=connector;rounded=0;orthogonalLoop=1;jettySize=auto;html=1;exitX=0.5;exitY=0;exitDx=0;exitDy=0;entryX=0.5;entryY=1;entryDx=0;entryDy=0;strokeColor=default;align=center;verticalAlign=middle;fontFamily=Helvetica;fontSize=12;fontColor=default;labelBackgroundColor=default;startSize=8;endArrow=none;endFill=0;endSize=8;" edge="1" parent="1" source="7wA72ayKQp1s7yQ74Olv-31" target="FJ0XkdiGqIxSbLd-AwFj-4">
          <mxGeometry relative="1" as="geometry" />
        </mxCell>
        <mxCell id="FJ0XkdiGqIxSbLd-AwFj-15" style="edgeStyle=none;shape=connector;rounded=0;orthogonalLoop=1;jettySize=auto;html=1;exitX=0;exitY=0.5;exitDx=0;exitDy=0;entryX=1;entryY=0.5;entryDx=0;entryDy=0;strokeColor=default;align=center;verticalAlign=middle;fontFamily=Helvetica;fontSize=12;fontColor=default;labelBackgroundColor=default;startSize=8;endArrow=none;endFill=0;endSize=8;" edge="1" parent="1" source="7wA72ayKQp1s7yQ74Olv-31">
          <mxGeometry relative="1" as="geometry">
            <mxPoint x="511" y="170" as="targetPoint" />
          </mxGeometry>
        </mxCell>
        <mxCell id="7wA72ayKQp1s7yQ74Olv-31" value="RESERVAS" style="whiteSpace=wrap;html=1;align=center;fontSize=16;fillColor=#E1F5E0;strokeColor=#000000;opacity=80;strokeWidth=1;" parent="1" vertex="1">
          <mxGeometry x="579.5" y="147" width="153" height="46" as="geometry" />
        </mxCell>
        <mxCell id="7wA72ayKQp1s7yQ74Olv-32" style="edgeStyle=none;shape=connector;rounded=0;orthogonalLoop=1;jettySize=auto;html=1;exitX=0.5;exitY=1;exitDx=0;exitDy=0;entryX=0.5;entryY=0;entryDx=0;entryDy=0;labelBackgroundColor=default;strokeColor=default;align=center;verticalAlign=middle;fontFamily=Helvetica;fontSize=12;fontColor=default;endArrow=none;endFill=0;startSize=8;endSize=8;" parent="1" source="7wA72ayKQp1s7yQ74Olv-33" target="7wA72ayKQp1s7yQ74Olv-31" edge="1">
          <mxGeometry relative="1" as="geometry" />
        </mxCell>
        <mxCell id="7wA72ayKQp1s7yQ74Olv-33" value="&lt;span style=&quot;font-size: 14px;&quot;&gt;ID_reserva&lt;/span&gt;" style="ellipse;whiteSpace=wrap;html=1;align=center;fontStyle=4;fontSize=16;fillColor=#edf3fd;strokeColor=#000000;strokeWidth=1;" parent="1" vertex="1">
          <mxGeometry x="498" y="79" width="100" height="40" as="geometry" />
        </mxCell>
        <mxCell id="7wA72ayKQp1s7yQ74Olv-34" style="edgeStyle=none;shape=connector;rounded=0;orthogonalLoop=1;jettySize=auto;html=1;exitX=0.5;exitY=1;exitDx=0;exitDy=0;entryX=0.5;entryY=0;entryDx=0;entryDy=0;labelBackgroundColor=default;strokeColor=default;align=center;verticalAlign=middle;fontFamily=Helvetica;fontSize=12;fontColor=default;endArrow=none;endFill=0;startSize=8;endSize=8;" parent="1" source="7wA72ayKQp1s7yQ74Olv-35" target="7wA72ayKQp1s7yQ74Olv-31" edge="1">
          <mxGeometry relative="1" as="geometry" />
        </mxCell>
        <mxCell id="7wA72ayKQp1s7yQ74Olv-35" value="&lt;font style=&quot;font-size: 14px;&quot;&gt;ID_cliente&lt;/font&gt;" style="ellipse;whiteSpace=wrap;html=1;align=center;fontSize=16;fillColor=#edf3fd;strokeColor=#000000;strokeWidth=1;" parent="1" vertex="1">
          <mxGeometry x="541" y="39" width="100" height="40" as="geometry" />
        </mxCell>
        <mxCell id="7wA72ayKQp1s7yQ74Olv-46" value="PRODUCTOS" style="whiteSpace=wrap;html=1;align=center;fontSize=16;fillColor=#E1F5E0;strokeColor=#000000;strokeWidth=1;" parent="1" vertex="1">
          <mxGeometry x="187.5" y="630" width="153" height="44" as="geometry" />
        </mxCell>
        <mxCell id="FJ0XkdiGqIxSbLd-AwFj-13" style="edgeStyle=none;shape=connector;rounded=0;orthogonalLoop=1;jettySize=auto;html=1;exitX=1;exitY=0.5;exitDx=0;exitDy=0;entryX=0;entryY=0.5;entryDx=0;entryDy=0;strokeColor=default;align=center;verticalAlign=middle;fontFamily=Helvetica;fontSize=12;fontColor=default;labelBackgroundColor=default;startSize=8;endArrow=none;endFill=0;endSize=8;" edge="1" parent="1" source="7wA72ayKQp1s7yQ74Olv-71" target="FJ0XkdiGqIxSbLd-AwFj-10">
          <mxGeometry relative="1" as="geometry" />
        </mxCell>
        <mxCell id="7wA72ayKQp1s7yQ74Olv-71" value="CLIENTES" style="whiteSpace=wrap;html=1;align=center;fontSize=16;fillColor=#E1F5E0;strokeColor=#000000;strokeWidth=1;" parent="1" vertex="1">
          <mxGeometry x="187.5" y="148" width="153" height="44" as="geometry" />
        </mxCell>
        <mxCell id="7wA72ayKQp1s7yQ74Olv-74" style="rounded=0;orthogonalLoop=1;jettySize=auto;html=1;exitX=1;exitY=0.5;exitDx=0;exitDy=0;entryX=0;entryY=0.5;entryDx=0;entryDy=0;fontSize=12;startSize=8;endSize=8;endArrow=none;endFill=0;" parent="1" source="7wA72ayKQp1s7yQ74Olv-75" target="7wA72ayKQp1s7yQ74Olv-71" edge="1">
          <mxGeometry relative="1" as="geometry" />
        </mxCell>
        <mxCell id="7wA72ayKQp1s7yQ74Olv-75" value="&lt;span style=&quot;font-size: 14px;&quot;&gt;ID_cliente&lt;/span&gt;" style="ellipse;whiteSpace=wrap;html=1;align=center;fontStyle=4;fontSize=16;fillColor=#edf3fd;strokeColor=#000000;strokeWidth=1;" parent="1" vertex="1">
          <mxGeometry x="30" y="146" width="110" height="46" as="geometry" />
        </mxCell>
        <mxCell id="7wA72ayKQp1s7yQ74Olv-78" style="edgeStyle=none;shape=connector;rounded=0;orthogonalLoop=1;jettySize=auto;html=1;exitX=0.5;exitY=1;exitDx=0;exitDy=0;entryX=0.5;entryY=0;entryDx=0;entryDy=0;labelBackgroundColor=default;strokeColor=default;align=center;verticalAlign=middle;fontFamily=Helvetica;fontSize=12;fontColor=default;endArrow=none;endFill=0;startSize=8;endSize=8;" parent="1" source="7wA72ayKQp1s7yQ74Olv-79" target="7wA72ayKQp1s7yQ74Olv-71" edge="1">
          <mxGeometry relative="1" as="geometry" />
        </mxCell>
        <mxCell id="7wA72ayKQp1s7yQ74Olv-79" value="&lt;span style=&quot;font-size: 14px;&quot;&gt;Nombre&lt;/span&gt;" style="ellipse;whiteSpace=wrap;html=1;align=center;fontSize=16;fillColor=#edf3fd;strokeColor=#000000;strokeWidth=1;" parent="1" vertex="1">
          <mxGeometry x="90" y="78" width="103.5" height="41" as="geometry" />
        </mxCell>
        <mxCell id="7wA72ayKQp1s7yQ74Olv-81" style="edgeStyle=none;shape=connector;rounded=0;orthogonalLoop=1;jettySize=auto;html=1;exitX=0.5;exitY=1;exitDx=0;exitDy=0;entryX=0.5;entryY=0;entryDx=0;entryDy=0;labelBackgroundColor=default;strokeColor=default;align=center;verticalAlign=middle;fontFamily=Helvetica;fontSize=12;fontColor=default;endArrow=none;endFill=0;startSize=8;endSize=8;" parent="1" source="7wA72ayKQp1s7yQ74Olv-82" target="7wA72ayKQp1s7yQ74Olv-71" edge="1">
          <mxGeometry relative="1" as="geometry">
            <mxPoint x="374" y="158" as="targetPoint" />
          </mxGeometry>
        </mxCell>
        <mxCell id="7wA72ayKQp1s7yQ74Olv-82" value="&lt;span style=&quot;font-size: 14px;&quot;&gt;Apellidos&lt;/span&gt;" style="ellipse;whiteSpace=wrap;html=1;align=center;fontSize=16;fillColor=#edf3fd;strokeColor=#000000;strokeWidth=1;" parent="1" vertex="1">
          <mxGeometry x="160" y="43.5" width="103.5" height="41" as="geometry" />
        </mxCell>
        <mxCell id="7wA72ayKQp1s7yQ74Olv-84" style="edgeStyle=none;shape=connector;rounded=0;orthogonalLoop=1;jettySize=auto;html=1;exitX=0.5;exitY=1;exitDx=0;exitDy=0;entryX=0.5;entryY=0;entryDx=0;entryDy=0;labelBackgroundColor=default;strokeColor=default;align=center;verticalAlign=middle;fontFamily=Helvetica;fontSize=12;fontColor=default;endArrow=none;endFill=0;startSize=8;endSize=8;" parent="1" source="7wA72ayKQp1s7yQ74Olv-85" target="7wA72ayKQp1s7yQ74Olv-71" edge="1">
          <mxGeometry relative="1" as="geometry">
            <mxPoint x="364" y="191" as="targetPoint" />
          </mxGeometry>
        </mxCell>
        <mxCell id="7wA72ayKQp1s7yQ74Olv-85" value="&lt;span style=&quot;font-size: 14px;&quot;&gt;Num_telefono&lt;/span&gt;" style="ellipse;whiteSpace=wrap;html=1;align=center;fontSize=16;fillColor=#edf3fd;strokeColor=#000000;strokeWidth=1;" parent="1" vertex="1">
          <mxGeometry x="346.5" y="79" width="103.5" height="41" as="geometry" />
        </mxCell>
        <mxCell id="7wA72ayKQp1s7yQ74Olv-87" value="(1,1)" style="text;html=1;align=center;verticalAlign=middle;whiteSpace=wrap;rounded=0;fontFamily=Helvetica;fontSize=12;fontColor=default;labelBackgroundColor=default;" parent="1" vertex="1">
          <mxGeometry x="340.5" y="140" width="60" height="30" as="geometry" />
        </mxCell>
        <mxCell id="7wA72ayKQp1s7yQ74Olv-90" style="edgeStyle=none;shape=connector;rounded=0;orthogonalLoop=1;jettySize=auto;html=1;exitX=0.5;exitY=1;exitDx=0;exitDy=0;entryX=0.5;entryY=0;entryDx=0;entryDy=0;labelBackgroundColor=default;strokeColor=default;align=center;verticalAlign=middle;fontFamily=Helvetica;fontSize=12;fontColor=default;endArrow=none;endFill=0;startSize=8;endSize=8;" parent="1" source="7wA72ayKQp1s7yQ74Olv-91" target="7wA72ayKQp1s7yQ74Olv-31" edge="1">
          <mxGeometry relative="1" as="geometry">
            <mxPoint x="732.5" y="229.5" as="targetPoint" />
          </mxGeometry>
        </mxCell>
        <mxCell id="7wA72ayKQp1s7yQ74Olv-91" value="&lt;font style=&quot;font-size: 14px;&quot;&gt;Fecha&lt;/font&gt;" style="ellipse;whiteSpace=wrap;html=1;align=center;fontSize=16;fillColor=#edf3fd;strokeColor=#000000;strokeWidth=1;" parent="1" vertex="1">
          <mxGeometry x="606" y="6" width="100" height="40" as="geometry" />
        </mxCell>
        <mxCell id="7wA72ayKQp1s7yQ74Olv-92" style="edgeStyle=none;shape=connector;rounded=0;orthogonalLoop=1;jettySize=auto;html=1;exitX=0.5;exitY=1;exitDx=0;exitDy=0;entryX=0.5;entryY=0;entryDx=0;entryDy=0;labelBackgroundColor=default;strokeColor=default;align=center;verticalAlign=middle;fontFamily=Helvetica;fontSize=12;fontColor=default;endArrow=none;endFill=0;startSize=8;endSize=8;" parent="1" source="7wA72ayKQp1s7yQ74Olv-93" target="7wA72ayKQp1s7yQ74Olv-31" edge="1">
          <mxGeometry relative="1" as="geometry">
            <mxPoint x="726" y="179" as="targetPoint" />
          </mxGeometry>
        </mxCell>
        <mxCell id="7wA72ayKQp1s7yQ74Olv-93" value="&lt;span style=&quot;font-size: 14px;&quot;&gt;Hora&lt;/span&gt;" style="ellipse;whiteSpace=wrap;html=1;align=center;fontSize=16;fillColor=#edf3fd;strokeColor=#000000;strokeWidth=1;" parent="1" vertex="1">
          <mxGeometry x="671" y="39" width="100" height="40" as="geometry" />
        </mxCell>
        <mxCell id="7wA72ayKQp1s7yQ74Olv-96" style="edgeStyle=none;shape=connector;rounded=0;orthogonalLoop=1;jettySize=auto;html=1;exitX=0.5;exitY=0;exitDx=0;exitDy=0;entryX=0.5;entryY=1;entryDx=0;entryDy=0;labelBackgroundColor=default;strokeColor=default;align=center;verticalAlign=middle;fontFamily=Helvetica;fontSize=12;fontColor=default;endArrow=none;endFill=0;startSize=8;endSize=8;" parent="1" source="7wA72ayKQp1s7yQ74Olv-97" target="7wA72ayKQp1s7yQ74Olv-13" edge="1">
          <mxGeometry relative="1" as="geometry">
            <mxPoint x="657.25" y="450" as="targetPoint" />
          </mxGeometry>
        </mxCell>
        <mxCell id="7wA72ayKQp1s7yQ74Olv-97" value="&lt;font style=&quot;font-size: 14px;&quot;&gt;Capacidad_&lt;/font&gt;&lt;div&gt;&lt;font style=&quot;font-size: 14px;&quot;&gt;maxima&lt;/font&gt;&lt;/div&gt;" style="ellipse;whiteSpace=wrap;html=1;align=center;fontSize=16;fillColor=#edf3fd;strokeColor=#000000;strokeWidth=1;" parent="1" vertex="1">
          <mxGeometry x="601" y="490" width="110" height="53" as="geometry" />
        </mxCell>
        <mxCell id="7wA72ayKQp1s7yQ74Olv-98" style="edgeStyle=none;shape=connector;rounded=0;orthogonalLoop=1;jettySize=auto;html=1;exitX=0.5;exitY=0;exitDx=0;exitDy=0;labelBackgroundColor=default;strokeColor=default;align=center;verticalAlign=middle;fontFamily=Helvetica;fontSize=12;fontColor=default;endArrow=none;endFill=0;startSize=8;endSize=8;entryX=0.5;entryY=1;entryDx=0;entryDy=0;" parent="1" source="7wA72ayKQp1s7yQ74Olv-100" target="7wA72ayKQp1s7yQ74Olv-13" edge="1">
          <mxGeometry relative="1" as="geometry">
            <mxPoint x="657.25" y="450" as="targetPoint" />
            <mxPoint x="589.75" y="486" as="sourcePoint" />
          </mxGeometry>
        </mxCell>
        <mxCell id="7wA72ayKQp1s7yQ74Olv-100" value="&lt;span style=&quot;font-size: 14px;&quot;&gt;Num_mesa&lt;/span&gt;" style="ellipse;whiteSpace=wrap;html=1;align=center;fontStyle=4;fontSize=16;fillColor=#edf3fd;strokeColor=#000000;strokeWidth=1;" parent="1" vertex="1">
          <mxGeometry x="499.5" y="460" width="100" height="40" as="geometry" />
        </mxCell>
        <mxCell id="7wA72ayKQp1s7yQ74Olv-104" style="edgeStyle=none;shape=connector;rounded=0;orthogonalLoop=1;jettySize=auto;html=1;exitX=0.5;exitY=0;exitDx=0;exitDy=0;entryX=0.5;entryY=1;entryDx=0;entryDy=0;strokeColor=default;align=center;verticalAlign=middle;fontFamily=Helvetica;fontSize=12;fontColor=default;labelBackgroundColor=default;startSize=8;endArrow=none;endFill=0;endSize=8;" parent="1" source="7wA72ayKQp1s7yQ74Olv-103" target="7wA72ayKQp1s7yQ74Olv-13" edge="1">
          <mxGeometry relative="1" as="geometry" />
        </mxCell>
        <mxCell id="7wA72ayKQp1s7yQ74Olv-103" value="&lt;font style=&quot;font-size: 14px;&quot;&gt;ID_reserva&lt;/font&gt;" style="ellipse;whiteSpace=wrap;html=1;align=center;fontSize=16;fillColor=#edf3fd;strokeColor=#000000;strokeWidth=1;" parent="1" vertex="1">
          <mxGeometry x="712.5" y="460" width="100" height="40" as="geometry" />
        </mxCell>
        <mxCell id="7wA72ayKQp1s7yQ74Olv-109" value="&lt;span style=&quot;font-size: 14px;&quot;&gt;ID_pedido&lt;/span&gt;" style="ellipse;whiteSpace=wrap;html=1;align=center;fontStyle=4;fontSize=16;fillColor=#edf3fd;strokeColor=#000000;strokeWidth=1;" parent="1" vertex="1">
          <mxGeometry x="20" y="305" width="110" height="46" as="geometry" />
        </mxCell>
        <mxCell id="7wA72ayKQp1s7yQ74Olv-112" style="edgeStyle=none;shape=connector;rounded=0;orthogonalLoop=1;jettySize=auto;html=1;exitX=1;exitY=0.5;exitDx=0;exitDy=0;entryX=0;entryY=0.5;entryDx=0;entryDy=0;strokeColor=default;align=center;verticalAlign=middle;fontFamily=Helvetica;fontSize=12;fontColor=default;labelBackgroundColor=default;startSize=8;endArrow=none;endFill=0;endSize=8;" parent="1" source="7wA72ayKQp1s7yQ74Olv-111" target="7wA72ayKQp1s7yQ74Olv-20" edge="1">
          <mxGeometry relative="1" as="geometry" />
        </mxCell>
        <mxCell id="7wA72ayKQp1s7yQ74Olv-111" value="&lt;font style=&quot;font-size: 14px;&quot;&gt;ID_cliente&lt;/font&gt;" style="ellipse;whiteSpace=wrap;html=1;align=center;fontSize=16;fillColor=#edf3fd;strokeColor=#000000;strokeWidth=1;" parent="1" vertex="1">
          <mxGeometry x="20" y="360" width="110" height="45" as="geometry" />
        </mxCell>
        <mxCell id="7wA72ayKQp1s7yQ74Olv-117" style="edgeStyle=none;shape=connector;rounded=0;orthogonalLoop=1;jettySize=auto;html=1;exitX=0.5;exitY=0;exitDx=0;exitDy=0;entryX=0.5;entryY=1;entryDx=0;entryDy=0;strokeColor=default;align=center;verticalAlign=middle;fontFamily=Helvetica;fontSize=12;fontColor=default;labelBackgroundColor=default;startSize=8;endArrow=none;endFill=0;endSize=8;" parent="1" source="7wA72ayKQp1s7yQ74Olv-113" target="7wA72ayKQp1s7yQ74Olv-46" edge="1">
          <mxGeometry relative="1" as="geometry" />
        </mxCell>
        <mxCell id="7wA72ayKQp1s7yQ74Olv-113" value="&lt;span style=&quot;font-size: 14px;&quot;&gt;Nombre&lt;/span&gt;" style="ellipse;whiteSpace=wrap;html=1;align=center;fontSize=16;fillColor=#edf3fd;strokeColor=#000000;strokeWidth=1;" parent="1" vertex="1">
          <mxGeometry x="208.25" y="730" width="110" height="40" as="geometry" />
        </mxCell>
        <mxCell id="7wA72ayKQp1s7yQ74Olv-116" style="edgeStyle=none;shape=connector;rounded=0;orthogonalLoop=1;jettySize=auto;html=1;exitX=0.5;exitY=0;exitDx=0;exitDy=0;entryX=0.5;entryY=1;entryDx=0;entryDy=0;strokeColor=default;align=center;verticalAlign=middle;fontFamily=Helvetica;fontSize=12;fontColor=default;labelBackgroundColor=default;startSize=8;endArrow=none;endFill=0;endSize=8;" parent="1" source="7wA72ayKQp1s7yQ74Olv-114" target="7wA72ayKQp1s7yQ74Olv-46" edge="1">
          <mxGeometry relative="1" as="geometry" />
        </mxCell>
        <mxCell id="7wA72ayKQp1s7yQ74Olv-114" value="&lt;span style=&quot;font-size: 14px;&quot;&gt;ID_producto&lt;/span&gt;" style="ellipse;whiteSpace=wrap;html=1;align=center;fontStyle=4;fontSize=16;fillColor=#edf3fd;strokeColor=#000000;strokeWidth=1;" parent="1" vertex="1">
          <mxGeometry x="108.25" y="700" width="100" height="40" as="geometry" />
        </mxCell>
        <mxCell id="7wA72ayKQp1s7yQ74Olv-118" style="edgeStyle=none;shape=connector;rounded=0;orthogonalLoop=1;jettySize=auto;html=1;exitX=0.5;exitY=0;exitDx=0;exitDy=0;entryX=0.5;entryY=1;entryDx=0;entryDy=0;strokeColor=default;align=center;verticalAlign=middle;fontFamily=Helvetica;fontSize=12;fontColor=default;labelBackgroundColor=default;startSize=8;endArrow=none;endFill=0;endSize=8;" parent="1" source="7wA72ayKQp1s7yQ74Olv-115" target="7wA72ayKQp1s7yQ74Olv-46" edge="1">
          <mxGeometry relative="1" as="geometry" />
        </mxCell>
        <mxCell id="7wA72ayKQp1s7yQ74Olv-115" value="&lt;font style=&quot;font-size: 14px;&quot;&gt;Precio&lt;/font&gt;" style="ellipse;whiteSpace=wrap;html=1;align=center;fontSize=16;fillColor=#edf3fd;strokeColor=#000000;strokeWidth=1;" parent="1" vertex="1">
          <mxGeometry x="319.75" y="700" width="100" height="40" as="geometry" />
        </mxCell>
        <mxCell id="FJ0XkdiGqIxSbLd-AwFj-1" value="&lt;span style=&quot;font-size: 14px;&quot;&gt;Precio&lt;/span&gt;" style="ellipse;whiteSpace=wrap;html=1;align=center;fontSize=16;fillColor=#edf3fd;strokeColor=#000000;strokeWidth=1;" vertex="1" parent="1">
          <mxGeometry x="20" y="412.5" width="110" height="45" as="geometry" />
        </mxCell>
        <mxCell id="FJ0XkdiGqIxSbLd-AwFj-3" style="edgeStyle=none;shape=connector;rounded=0;orthogonalLoop=1;jettySize=auto;html=1;exitX=1;exitY=0.5;exitDx=0;exitDy=0;entryX=0;entryY=0.5;entryDx=0;entryDy=0;strokeColor=default;align=center;verticalAlign=middle;fontFamily=Helvetica;fontSize=12;fontColor=default;labelBackgroundColor=default;startSize=8;endArrow=none;endFill=0;endSize=8;" edge="1" parent="1" source="FJ0XkdiGqIxSbLd-AwFj-1" target="7wA72ayKQp1s7yQ74Olv-20">
          <mxGeometry relative="1" as="geometry">
            <mxPoint x="140" y="387" as="sourcePoint" />
            <mxPoint x="198" y="361" as="targetPoint" />
          </mxGeometry>
        </mxCell>
        <mxCell id="FJ0XkdiGqIxSbLd-AwFj-4" value="&lt;span style=&quot;font-size: 14px;&quot;&gt;Estado&lt;/span&gt;" style="ellipse;whiteSpace=wrap;html=1;align=center;fontSize=16;fillColor=#edf3fd;strokeColor=#000000;strokeWidth=1;" vertex="1" parent="1">
          <mxGeometry x="721" y="79" width="100" height="50" as="geometry" />
        </mxCell>
        <mxCell id="FJ0XkdiGqIxSbLd-AwFj-7" style="edgeStyle=none;shape=connector;rounded=0;orthogonalLoop=1;jettySize=auto;html=1;exitX=0.5;exitY=1;exitDx=0;exitDy=0;strokeColor=default;align=center;verticalAlign=middle;fontFamily=Helvetica;fontSize=12;fontColor=default;labelBackgroundColor=default;startSize=8;endArrow=none;endFill=0;endSize=8;entryX=0.5;entryY=0;entryDx=0;entryDy=0;" edge="1" parent="1" source="FJ0XkdiGqIxSbLd-AwFj-6" target="7wA72ayKQp1s7yQ74Olv-71">
          <mxGeometry relative="1" as="geometry">
            <mxPoint x="270" y="110" as="targetPoint" />
          </mxGeometry>
        </mxCell>
        <mxCell id="FJ0XkdiGqIxSbLd-AwFj-6" value="&lt;span style=&quot;font-size: 14px;&quot;&gt;Email&lt;/span&gt;" style="ellipse;whiteSpace=wrap;html=1;align=center;fontSize=16;fillColor=#edf3fd;strokeColor=#000000;strokeWidth=1;" vertex="1" parent="1">
          <mxGeometry x="270" y="43.5" width="103.5" height="41" as="geometry" />
        </mxCell>
        <mxCell id="FJ0XkdiGqIxSbLd-AwFj-10" value="&lt;span style=&quot;&quot;&gt;REALIZAN&lt;/span&gt;" style="shape=rhombus;perimeter=rhombusPerimeter;whiteSpace=wrap;html=1;align=center;fontFamily=Helvetica;fontSize=12;labelBackgroundColor=none;fillColor=#fff2cc;strokeColor=#000000;opacity=80;" vertex="1" parent="1">
          <mxGeometry x="400.5" y="139" width="120" height="60" as="geometry" />
        </mxCell>
        <mxCell id="FJ0XkdiGqIxSbLd-AwFj-11" value="(1,N)" style="text;html=1;align=center;verticalAlign=middle;whiteSpace=wrap;rounded=0;fontFamily=Helvetica;fontSize=12;fontColor=default;labelBackgroundColor=default;" vertex="1" parent="1">
          <mxGeometry x="518" y="140" width="60" height="30" as="geometry" />
        </mxCell>
        <mxCell id="FJ0XkdiGqIxSbLd-AwFj-16" value="1:N" style="text;html=1;align=center;verticalAlign=middle;whiteSpace=wrap;rounded=0;fontFamily=Helvetica;fontSize=12;fontColor=default;labelBackgroundColor=default;" vertex="1" parent="1">
          <mxGeometry x="430.5" y="110" width="60" height="30" as="geometry" />
        </mxCell>
        <mxCell id="FJ0XkdiGqIxSbLd-AwFj-21" style="edgeStyle=none;shape=connector;rounded=0;orthogonalLoop=1;jettySize=auto;html=1;exitX=0.5;exitY=1;exitDx=0;exitDy=0;entryX=0.5;entryY=0;entryDx=0;entryDy=0;strokeColor=default;align=center;verticalAlign=middle;fontFamily=Helvetica;fontSize=12;fontColor=default;labelBackgroundColor=default;startSize=8;endArrow=none;endFill=0;endSize=8;" edge="1" parent="1" source="FJ0XkdiGqIxSbLd-AwFj-17" target="7wA72ayKQp1s7yQ74Olv-13">
          <mxGeometry relative="1" as="geometry" />
        </mxCell>
        <mxCell id="FJ0XkdiGqIxSbLd-AwFj-22" style="edgeStyle=none;shape=connector;rounded=0;orthogonalLoop=1;jettySize=auto;html=1;exitX=0.5;exitY=0;exitDx=0;exitDy=0;entryX=0.5;entryY=1;entryDx=0;entryDy=0;strokeColor=default;align=center;verticalAlign=middle;fontFamily=Helvetica;fontSize=12;fontColor=default;labelBackgroundColor=default;startSize=8;endArrow=none;endFill=0;endSize=8;" edge="1" parent="1" source="FJ0XkdiGqIxSbLd-AwFj-17" target="7wA72ayKQp1s7yQ74Olv-31">
          <mxGeometry relative="1" as="geometry" />
        </mxCell>
        <mxCell id="FJ0XkdiGqIxSbLd-AwFj-17" value="&lt;span style=&quot;&quot;&gt;NECESITAN&lt;/span&gt;" style="shape=rhombus;perimeter=rhombusPerimeter;whiteSpace=wrap;html=1;align=center;fontFamily=Helvetica;fontSize=12;labelBackgroundColor=none;fillColor=#fff2cc;strokeColor=#000000;opacity=80;" vertex="1" parent="1">
          <mxGeometry x="596" y="260" width="120" height="60" as="geometry" />
        </mxCell>
        <mxCell id="FJ0XkdiGqIxSbLd-AwFj-18" value="(1,1)" style="text;html=1;align=center;verticalAlign=middle;whiteSpace=wrap;rounded=0;fontFamily=Helvetica;fontSize=12;fontColor=default;labelBackgroundColor=default;" vertex="1" parent="1">
          <mxGeometry x="646" y="210" width="60" height="30" as="geometry" />
        </mxCell>
        <mxCell id="FJ0XkdiGqIxSbLd-AwFj-19" value="(1,N)" style="text;html=1;align=center;verticalAlign=middle;whiteSpace=wrap;rounded=0;fontFamily=Helvetica;fontSize=12;fontColor=default;labelBackgroundColor=default;" vertex="1" parent="1">
          <mxGeometry x="646" y="336" width="60" height="30" as="geometry" />
        </mxCell>
        <mxCell id="FJ0XkdiGqIxSbLd-AwFj-20" value="1:N" style="text;html=1;align=center;verticalAlign=middle;whiteSpace=wrap;rounded=0;fontFamily=Helvetica;fontSize=12;fontColor=default;labelBackgroundColor=default;" vertex="1" parent="1">
          <mxGeometry x="706" y="275" width="60" height="30" as="geometry" />
        </mxCell>
        <mxCell id="FJ0XkdiGqIxSbLd-AwFj-23" style="edgeStyle=none;shape=connector;rounded=0;orthogonalLoop=1;jettySize=auto;html=1;exitX=0.5;exitY=1;exitDx=0;exitDy=0;entryX=0.5;entryY=0;entryDx=0;entryDy=0;strokeColor=default;align=center;verticalAlign=middle;fontFamily=Helvetica;fontSize=12;fontColor=default;labelBackgroundColor=default;startSize=8;endArrow=none;endFill=0;endSize=8;" edge="1" parent="1" source="FJ0XkdiGqIxSbLd-AwFj-25" target="7wA72ayKQp1s7yQ74Olv-20">
          <mxGeometry relative="1" as="geometry">
            <mxPoint x="400" y="374" as="targetPoint" />
          </mxGeometry>
        </mxCell>
        <mxCell id="FJ0XkdiGqIxSbLd-AwFj-24" style="edgeStyle=none;shape=connector;rounded=0;orthogonalLoop=1;jettySize=auto;html=1;exitX=0.5;exitY=0;exitDx=0;exitDy=0;entryX=0.5;entryY=1;entryDx=0;entryDy=0;strokeColor=default;align=center;verticalAlign=middle;fontFamily=Helvetica;fontSize=12;fontColor=default;labelBackgroundColor=default;startSize=8;endArrow=none;endFill=0;endSize=8;" edge="1" parent="1" source="FJ0XkdiGqIxSbLd-AwFj-25" target="7wA72ayKQp1s7yQ74Olv-71">
          <mxGeometry relative="1" as="geometry">
            <mxPoint x="400" y="187" as="targetPoint" />
          </mxGeometry>
        </mxCell>
        <mxCell id="FJ0XkdiGqIxSbLd-AwFj-25" value="&lt;span style=&quot;&quot;&gt;HACEN&lt;/span&gt;" style="shape=rhombus;perimeter=rhombusPerimeter;whiteSpace=wrap;html=1;align=center;fontFamily=Helvetica;fontSize=12;labelBackgroundColor=none;fillColor=#fff2cc;strokeColor=#000000;opacity=80;" vertex="1" parent="1">
          <mxGeometry x="204" y="260" width="120" height="60" as="geometry" />
        </mxCell>
        <mxCell id="FJ0XkdiGqIxSbLd-AwFj-26" value="(1,1)" style="text;html=1;align=center;verticalAlign=middle;whiteSpace=wrap;rounded=0;fontFamily=Helvetica;fontSize=12;fontColor=default;labelBackgroundColor=default;" vertex="1" parent="1">
          <mxGeometry x="253.5" y="210" width="60" height="30" as="geometry" />
        </mxCell>
        <mxCell id="FJ0XkdiGqIxSbLd-AwFj-27" value="(1,N)" style="text;html=1;align=center;verticalAlign=middle;whiteSpace=wrap;rounded=0;fontFamily=Helvetica;fontSize=12;fontColor=default;labelBackgroundColor=default;" vertex="1" parent="1">
          <mxGeometry x="253.5" y="336" width="60" height="30" as="geometry" />
        </mxCell>
        <mxCell id="FJ0XkdiGqIxSbLd-AwFj-28" value="1:N" style="text;html=1;align=center;verticalAlign=middle;whiteSpace=wrap;rounded=0;fontFamily=Helvetica;fontSize=12;fontColor=default;labelBackgroundColor=default;" vertex="1" parent="1">
          <mxGeometry x="313.5" y="275" width="60" height="30" as="geometry" />
        </mxCell>
        <mxCell id="FJ0XkdiGqIxSbLd-AwFj-29" style="edgeStyle=none;shape=connector;rounded=0;orthogonalLoop=1;jettySize=auto;html=1;exitX=0.5;exitY=1;exitDx=0;exitDy=0;strokeColor=default;align=center;verticalAlign=middle;fontFamily=Helvetica;fontSize=12;fontColor=default;labelBackgroundColor=default;startSize=8;endArrow=none;endFill=0;endSize=8;entryX=0.5;entryY=0;entryDx=0;entryDy=0;" edge="1" parent="1" source="FJ0XkdiGqIxSbLd-AwFj-31" target="7wA72ayKQp1s7yQ74Olv-46">
          <mxGeometry relative="1" as="geometry">
            <mxPoint x="384" y="665.5" as="targetPoint" />
            <mxPoint x="264" y="600" as="sourcePoint" />
          </mxGeometry>
        </mxCell>
        <mxCell id="FJ0XkdiGqIxSbLd-AwFj-30" style="edgeStyle=none;shape=connector;rounded=0;orthogonalLoop=1;jettySize=auto;html=1;exitX=0.5;exitY=0;exitDx=0;exitDy=0;entryX=0.5;entryY=1;entryDx=0;entryDy=0;strokeColor=default;align=center;verticalAlign=middle;fontFamily=Helvetica;fontSize=12;fontColor=default;labelBackgroundColor=default;startSize=8;endArrow=none;endFill=0;endSize=8;" edge="1" parent="1" source="FJ0XkdiGqIxSbLd-AwFj-31" target="7wA72ayKQp1s7yQ74Olv-20">
          <mxGeometry relative="1" as="geometry">
            <mxPoint x="384" y="436.5" as="targetPoint" />
          </mxGeometry>
        </mxCell>
        <mxCell id="FJ0XkdiGqIxSbLd-AwFj-31" value="INCLUYEN" style="shape=rhombus;perimeter=rhombusPerimeter;whiteSpace=wrap;html=1;align=center;fontFamily=Helvetica;fontSize=12;labelBackgroundColor=none;fillColor=#fff2cc;strokeColor=#000000;opacity=80;" vertex="1" parent="1">
          <mxGeometry x="204" y="504.5" width="120" height="60" as="geometry" />
        </mxCell>
        <mxCell id="FJ0XkdiGqIxSbLd-AwFj-32" value="(1,N)" style="text;html=1;align=center;verticalAlign=middle;whiteSpace=wrap;rounded=0;fontFamily=Helvetica;fontSize=12;fontColor=default;labelBackgroundColor=default;" vertex="1" parent="1">
          <mxGeometry x="253.5" y="454.5" width="60" height="30" as="geometry" />
        </mxCell>
        <mxCell id="FJ0XkdiGqIxSbLd-AwFj-33" value="(1,N)" style="text;html=1;align=center;verticalAlign=middle;whiteSpace=wrap;rounded=0;fontFamily=Helvetica;fontSize=12;fontColor=default;labelBackgroundColor=default;" vertex="1" parent="1">
          <mxGeometry x="253.5" y="575.5" width="60" height="30" as="geometry" />
        </mxCell>
        <mxCell id="FJ0XkdiGqIxSbLd-AwFj-34" value="N:M" style="text;html=1;align=center;verticalAlign=middle;whiteSpace=wrap;rounded=0;fontFamily=Helvetica;fontSize=12;fontColor=default;labelBackgroundColor=default;" vertex="1" parent="1">
          <mxGeometry x="313.5" y="519.5" width="60" height="30" as="geometry" />
        </mxCell>
        <mxCell id="FJ0XkdiGqIxSbLd-AwFj-38" style="edgeStyle=none;shape=connector;rounded=0;orthogonalLoop=1;jettySize=auto;html=1;exitX=1;exitY=0.5;exitDx=0;exitDy=0;entryX=0;entryY=0.5;entryDx=0;entryDy=0;strokeColor=default;align=center;verticalAlign=middle;fontFamily=Helvetica;fontSize=12;fontColor=default;labelBackgroundColor=default;startSize=8;endArrow=none;endFill=0;endSize=8;" edge="1" parent="1" source="FJ0XkdiGqIxSbLd-AwFj-35" target="FJ0XkdiGqIxSbLd-AwFj-31">
          <mxGeometry relative="1" as="geometry" />
        </mxCell>
        <mxCell id="FJ0XkdiGqIxSbLd-AwFj-35" value="&lt;span style=&quot;font-size: 14px;&quot;&gt;ID_detalle_&lt;/span&gt;&lt;div&gt;&lt;span style=&quot;font-size: 14px;&quot;&gt;pedido&lt;/span&gt;&lt;/div&gt;" style="ellipse;whiteSpace=wrap;html=1;align=center;fontStyle=4;fontSize=16;fillColor=#edf3fd;strokeColor=#000000;strokeWidth=1;" vertex="1" parent="1">
          <mxGeometry x="77.5" y="460" width="110" height="55.5" as="geometry" />
        </mxCell>
        <mxCell id="FJ0XkdiGqIxSbLd-AwFj-39" style="edgeStyle=none;shape=connector;rounded=0;orthogonalLoop=1;jettySize=auto;html=1;exitX=1;exitY=0.5;exitDx=0;exitDy=0;entryX=0;entryY=0.5;entryDx=0;entryDy=0;strokeColor=default;align=center;verticalAlign=middle;fontFamily=Helvetica;fontSize=12;fontColor=default;labelBackgroundColor=default;startSize=8;endArrow=none;endFill=0;endSize=8;" edge="1" parent="1" source="FJ0XkdiGqIxSbLd-AwFj-36" target="FJ0XkdiGqIxSbLd-AwFj-31">
          <mxGeometry relative="1" as="geometry" />
        </mxCell>
        <mxCell id="FJ0XkdiGqIxSbLd-AwFj-36" value="&lt;font style=&quot;font-size: 14px;&quot;&gt;Cantidad&lt;/font&gt;" style="ellipse;whiteSpace=wrap;html=1;align=center;fontSize=16;fillColor=#edf3fd;strokeColor=#000000;strokeWidth=1;" vertex="1" parent="1">
          <mxGeometry x="10" y="512" width="110" height="45" as="geometry" />
        </mxCell>
        <mxCell id="FJ0XkdiGqIxSbLd-AwFj-40" style="edgeStyle=none;shape=connector;rounded=0;orthogonalLoop=1;jettySize=auto;html=1;exitX=1;exitY=0.5;exitDx=0;exitDy=0;entryX=0;entryY=0.5;entryDx=0;entryDy=0;strokeColor=default;align=center;verticalAlign=middle;fontFamily=Helvetica;fontSize=12;fontColor=default;labelBackgroundColor=default;startSize=8;endArrow=none;endFill=0;endSize=8;" edge="1" parent="1" source="FJ0XkdiGqIxSbLd-AwFj-37" target="FJ0XkdiGqIxSbLd-AwFj-31">
          <mxGeometry relative="1" as="geometry" />
        </mxCell>
        <mxCell id="FJ0XkdiGqIxSbLd-AwFj-37" value="&lt;span style=&quot;font-size: 14px;&quot;&gt;Precio&lt;/span&gt;" style="ellipse;whiteSpace=wrap;html=1;align=center;fontSize=16;fillColor=#edf3fd;strokeColor=#000000;strokeWidth=1;" vertex="1" parent="1">
          <mxGeometry x="77.5" y="554.5" width="110" height="45" as="geometry" />
        </mxCell>
      </root>
    </mxGraphModel>
  </diagram>
</mxfile>
